<svg width="2400" height="2400" viewBox="0 0 2400 2400" fill="none" xmlns="http://www.w3.org/2000/svg">
<path d="M0 1200C0 1014.2 0 921.298 12.3117 843.565C80.0832 415.673 415.673 80.0832 843.565 12.3117C921.298 0 1014.2 0 1200 0V0C1385.8 0 1478.7 0 1556.43 12.3117C1984.33 80.0832 2319.92 415.673 2387.69 843.565C2400 921.298 2400 1014.2 2400 1200V1200C2400 1385.8 2400 1478.7 2387.69 1556.43C2319.92 1984.33 1984.33 2319.92 1556.43 2387.69C1478.7 2400 1385.8 2400 1200 2400V2400C1014.2 2400 921.298 2400 843.565 2387.69C415.673 2319.92 80.0832 1984.33 12.3117 1556.43C0 1478.7 0 1385.8 0 1200V1200Z" fill="#111111"/>
<path d="M1899.97 1700.01H2099.97C2159.97 1700.01 2199.97 1660.01 2199.97 1600.01V1300.01C2199.97 1210.01 2129.97 1130.01 2049.97 1110.01C1869.97 1060.01 1599.97 1000.01 1599.97 1000.01C1599.97 1000.01 1469.97 860.008 1379.97 770.008C1329.97 730.008 1269.97 700.008 1199.97 700.008H499.969C439.969 700.008 389.969 740.008 359.969 790.008L219.969 1080.01C206.727 1118.63 199.969 1159.18 199.969 1200.01V1600.01C199.969 1660.01 239.969 1700.01 299.969 1700.01H499.969" stroke="white" stroke-width="200" stroke-linecap="round" stroke-linejoin="round"/>
<path d="M699.969 1900C810.426 1900 899.969 1810.46 899.969 1700C899.969 1589.54 810.426 1500 699.969 1500C589.512 1500 499.969 1589.54 499.969 1700C499.969 1810.46 589.512 1900 699.969 1900Z" stroke="white" stroke-width="200" stroke-linecap="round" stroke-linejoin="round"/>
<path d="M900 1700H1500" stroke="white" stroke-width="200" stroke-linecap="round" stroke-linejoin="round"/>
<path d="M1700 1900C1810.46 1900 1900 1810.46 1900 1700C1900 1589.54 1810.46 1500 1700 1500C1589.54 1500 1500 1589.54 1500 1700C1500 1810.46 1589.54 1900 1700 1900Z" stroke="white" stroke-width="200" stroke-linecap="round" stroke-linejoin="round"/>
</svg>
