<svg width="515" height="387" viewBox="0 0 515 387" fill="none" xmlns="http://www.w3.org/2000/svg">
<path d="M38.9222 303.826C33.9834 303.832 29.2486 305.796 25.7564 309.288C22.2642 312.781 20.2999 317.516 20.2944 322.454V366.035C20.2999 370.974 22.2642 375.709 25.7564 379.201C29.2486 382.693 33.9834 384.658 38.9222 384.663H62.5496C67.4884 384.658 72.2233 382.693 75.7154 379.201C79.2076 375.709 81.1719 370.974 81.1775 366.035V322.454C81.1719 317.516 79.2076 312.781 75.7154 309.288C72.2233 305.796 67.4884 303.832 62.5496 303.826H38.9222Z" fill="#364154"/>
<path d="M475.685 386.113H452.057C446.734 386.107 441.631 383.99 437.867 380.226C434.103 376.462 431.986 371.358 431.98 366.035V322.455C431.986 317.132 434.103 312.028 437.867 308.264C441.631 304.5 446.734 302.383 452.057 302.377H475.685C481.008 302.383 486.111 304.5 489.875 308.264C493.639 312.028 495.756 317.132 495.762 322.455V366.035C495.756 371.358 493.639 376.462 489.875 380.226C486.111 383.99 481.008 386.107 475.685 386.113Z" fill="#364154"/>
<path d="M460.008 351.219H53.1499C34.6336 351.219 19.5696 340.303 19.5696 326.886V248.649L39.7642 227.382H477.322L493.588 248.694V326.886C493.588 340.303 478.524 351.219 460.008 351.219Z" fill="#2751D0"/>
<path d="M475.423 266.521H42.0839L37.6804 198.997L40.4826 192.087L56.7714 152.003H457.802L479.827 197.521L475.423 266.521Z" fill="#2751D0"/>
<path d="M479.092 197.666L475.859 248.402H380.519V210.712L476.381 192.07L479.092 197.666Z" fill="#F0F6FE"/>
<path d="M135.538 210.712V248.401H41.6323L38.4138 199.115L41.1542 192.36L135.538 210.712Z" fill="#F0F6FE"/>
<path d="M455.385 163.6H59.1841L101.442 22.7412C103.165 16.9237 106.715 11.815 111.565 8.17011C116.416 4.5252 122.31 2.53743 128.378 2.50063L390.768 0.00133637C397.108 -0.0601518 403.286 2.00181 408.319 5.85874C413.351 9.71567 416.948 15.1457 418.536 21.2838L455.385 163.6Z" fill="#2751D0"/>
<path d="M424.885 150.281L89.62 146.305C89.1961 146.3 88.7794 146.196 88.4032 146C88.0271 145.805 87.702 145.524 87.4542 145.18C87.2064 144.836 87.0427 144.439 86.9764 144.02C86.9101 143.602 86.943 143.173 87.0723 142.77L119.213 42.4916C119.388 41.945 119.732 41.4682 120.196 41.1299C120.659 40.7917 121.219 40.6094 121.793 40.6094H391.453C392.027 40.6094 392.586 40.7915 393.049 41.1296C393.513 41.4677 393.857 41.9442 394.033 42.4905L427.497 146.744C427.628 147.153 427.66 147.587 427.59 148.011C427.521 148.435 427.352 148.836 427.097 149.181C426.842 149.527 426.508 149.806 426.124 149.998C425.739 150.189 425.315 150.286 424.885 150.281Z" fill="#F0F6FE"/>
<path d="M59.4335 160.7H0V147.637C0.00471818 143.414 1.68446 139.365 4.67062 136.379C7.65679 133.392 11.7056 131.713 15.9286 131.708H59.4335V160.7Z" fill="#2751D0"/>
<path d="M514.607 160.7H455.174V131.708H498.678C502.902 131.713 506.95 133.392 509.936 136.379C512.923 139.365 514.602 143.414 514.607 147.637V160.7Z" fill="#2751D0"/>
</svg>
